<?xml version="1.0" encoding="utf-8"?>
<!-- Generator: Adobe Illustrator 15.0.0, SVG Export Plug-In . SVG Version: 6.00 Build 0)  -->
<!DOCTYPE svg PUBLIC "-//W3C//DTD SVG 1.1//EN" "http://www.w3.org/Graphics/SVG/1.1/DTD/svg11.dtd">
<svg version="1.1" id="Layer_1" xmlns="http://www.w3.org/2000/svg" xmlns:xlink="http://www.w3.org/1999/xlink" x="0px" y="0px"
	 width="850.394px" height="566.929px" viewBox="0 0 850.394 566.929" enable-background="new 0 0 850.394 566.929"
	 xml:space="preserve">
<g>
	<path fill="#8B0304" d="M126.919,337.54V220.516c0-4.153,3.396-7.55,7.361-7.55h82.895c3.775,0,6.795,3.02,6.795,6.795
		c0,3.774-3.021,6.795-6.795,6.795h-75.346v45.111h75.546c3.775,0,6.795,3.209,6.795,6.795c0,3.775-3.02,6.795-6.795,6.795h-75.546
		v46.241h75.5c3.775,0,6.796,3.021,6.796,6.797c0,3.775-3.021,6.796-6.796,6.796H134.28
		C130.316,345.091,126.919,341.693,126.919,337.54z"/>
	<path fill="#8B0304" d="M299.013,340.372L248.05,222.781c-0.565-1.133-0.755-2.076-0.755-3.397c0-3.776,3.399-7.361,7.551-7.361
		c3.776,0,6.417,2.454,7.741,5.663l45.676,109.473l45.869-109.852c1.319-2.641,3.961-5.284,7.36-5.284
		c4.152,0,7.359,3.397,7.359,7.173c0,1.133-0.187,2.076-0.566,3.02l-51.152,118.157c-1.699,3.775-4.341,6.23-8.682,6.23h-0.755
		C303.355,346.602,300.523,344.147,299.013,340.372z"/>
	<path fill="#8B0304" d="M393.816,219.761c0-3.965,3.396-7.361,7.362-7.361h2.076c3.396,0,5.471,1.699,7.551,4.341l80.217,102.301
		v-99.658c0-3.964,3.21-7.361,7.361-7.361c3.966,0,7.172,3.397,7.172,7.361v119.29c0,3.963-2.831,6.983-6.793,6.983h-0.755
		c-3.21,0-5.476-1.889-7.74-4.53L408.35,236.371v102.303c0,3.963-3.209,7.361-7.361,7.361c-3.965,0-7.172-3.398-7.172-7.361V219.761
		z"/>
	<circle fill="#8B0304" cx="670.557" cy="190.882" r="7.527"/>
	<circle fill="#8B0304" cx="600.954" cy="357.021" r="7.527"/>
	<path fill="#8B0304" d="M662.544,272.375c-15.607-6.102-24.149-10.685-27.301-17.235l-6.794,16.144
		c5.888,4.916,14.39,9.092,25.566,13.512c20.021,7.784,26.693,13.717,26.693,23.727c0,14.089-14.088,24.284-32.81,24.284
		c-17.131,0-28.589-5.342-38.682-15.827l-6.02,14.303c11.727,9.996,26.897,14.685,43.773,14.685
		c27.62,0,49.123-16.497,49.123-39.298C696.095,289.984,684.788,280.901,662.544,272.375z"/>
	<path fill="#8B0304" d="M707.218,227.33c-8.713-7.601-21.688-14.83-40.967-14.83c-4.812,0-9.376,0.487-13.646,1.387l-6.86,16.301
		c5.023-2.808,11.503-4.525,19.209-4.525c13.717,0,24.282,4.449,33.181,12.975c1.669,1.299,3.337,1.854,5.19,1.854
		c3.894,0,7.229-2.965,7.229-7.043C710.554,230.48,709.071,228.812,707.218,227.33z"/>
	<path fill="#8B0304" d="M575.592,336.29l15.133-35.957v-73.696h31.015l5.812-13.809h-90.357c-3.782,0-6.998,3.217-6.998,6.999
		s3.216,6.81,6.998,6.81h38.398V336.29z"/>
</g>
</svg>
